# Blender 5.2.1 LTS
# www.blender.org
mtllib holocron_texturizado.mtl
o holocron_uv
v -2.517274 -2.579095 0.002115
v -1.185055 -2.530499 -1.198261
v 0.049649 2.440128 -2.417217
v 0.051152 2.399781 2.545043
v -2.646786 -0.139047 2.493757
v -1.328995 -2.578386 1.297838
v 2.593003 -0.085222 2.505755
v 1.385028 -2.549476 1.308677
v -0.140696 -2.601934 2.558561
v 2.534944 -0.061146 -2.580280
v 1.344182 -2.542571 -1.294387
v 0.081432 -2.513204 -2.426005
v -2.453980 -0.063388 -2.477451
v 2.632201 -2.553892 0.007226
v 2.521206 2.448241 0.063388
v -2.451372 2.421759 0.077538
vn -0.0053 1.0000 0.0081
vn -0.0021 0.0027 1.0000
vn -0.0023 0.0027 1.0000
vn -0.0022 0.0027 1.0000
vn 0.9997 0.0223 -0.0113
vn 0.9997 0.0223 -0.0112
vn 0.9997 0.0223 -0.0114
vn -0.0205 0.0019 -0.9998
vn -0.0206 0.0016 -0.9998
vn -0.0204 0.0019 -0.9998
vn -0.9992 0.0140 -0.0384
vn -0.9992 0.0136 -0.0385
vn -0.9992 0.0139 -0.0384
vn 0.0044 -0.9999 -0.0151
vn 0.5732 0.5771 0.5818
vn -0.5649 0.5887 0.5782
vn 0.5661 0.5994 -0.5660
vn -0.5737 0.5874 -0.5708
vn 0.5556 -0.5821 0.5937
vn -0.5941 -0.5898 0.5470
vn -0.5940 -0.5899 0.5469
vn 0.5548 -0.5856 -0.5909
vn 0.5549 -0.5856 -0.5909
vn -0.5466 -0.5832 -0.6009
vt 0.240000 0.990000
vt 0.010000 0.760000
vt 0.240000 0.760000
vt 0.010000 0.990000
vt 0.260000 0.760000
vt 0.490000 0.990000
vt 0.260000 0.990000
vt 0.490000 0.760000
vt 0.510000 0.760000
vt 0.740000 0.990000
vt 0.510000 0.990000
vt 0.740000 0.760000
vt 0.760000 0.760000
vt 0.990000 0.990000
vt 0.760000 0.990000
vt 0.990000 0.760000
vt 0.010000 0.740000
vt 0.240000 0.510000
vt 0.240000 0.740000
vt 0.010000 0.510000
vt 0.375000 0.740000
vt 0.260000 0.625000
vt 0.375000 0.510000
vt 0.490000 0.510000
vt 0.490000 0.625000
vt 0.490000 0.740000
vt 0.260000 0.740000
vt 0.260000 0.510000
vt 0.510000 0.725000
vt 0.625000 0.525000
vt 0.740000 0.725000
vt 0.760000 0.725000
vt 0.875000 0.525000
vt 0.990000 0.725000
vt 0.010000 0.475000
vt 0.125000 0.275000
vt 0.240000 0.475000
vt 0.260000 0.475000
vt 0.375000 0.275000
vt 0.490000 0.475000
vt 0.625000 0.475000
vt 0.625000 0.275000
vt 0.740000 0.275000
vt 0.510000 0.275000
vt 0.875000 0.475000
vt 0.875000 0.275000
vt 0.990000 0.275000
vt 0.760000 0.275000
vt 0.125000 0.225000
vt 0.125000 0.025000
vt 0.240000 0.025000
vt 0.010000 0.025000
vt 0.375000 0.225000
vt 0.375000 0.025000
vt 0.490000 0.025000
vt 0.260000 0.025000
s 1
usemtl Material.001
f 3/1/1 4/2/1 15/3/1
f 3/1/1 16/4/1 4/2/1
f 9/5/2 4/6/3 5/7/4
f 9/5/2 7/8/4 4/6/3
f 14/9/5 15/10/6 7/11/7
f 14/9/5 10/12/7 15/10/6
f 12/13/8 3/14/9 10/15/10
f 12/13/8 13/16/10 3/14/9
f 13/17/11 5/18/12 16/19/13
f 13/17/11 1/20/13 5/18/12
f 11/21/14 8/22/14 6/23/14
f 6/23/14 1/24/14 2/25/14
f 2/25/14 12/26/14 11/21/14
f 11/21/14 14/27/14 8/22/14
f 8/22/14 9/28/14 6/23/14
f 6/23/14 2/25/14 11/21/14
f 4/29/15 7/30/15 15/31/15
f 16/32/16 5/33/16 4/34/16
f 15/35/17 10/36/17 3/37/17
f 3/38/18 13/39/18 16/40/18
f 7/41/19 8/42/19 14/43/19
f 7/41/19 9/44/19 8/42/19
f 5/45/20 6/46/21 9/47/20
f 5/45/20 1/48/20 6/46/21
f 10/49/22 11/50/22 12/51/22
f 10/49/22 14/52/23 11/50/22
f 13/53/24 2/54/24 1/55/24
f 13/53/24 12/56/24 2/54/24
